<?xml version="1.0" encoding="UTF-8" standalone="no"?>
<!DOCTYPE svg PUBLIC "-//W3C//DTD SVG 20010904//EN"
              "http://www.w3.org/TR/2001/REC-SVG-20010904/DTD/svg10.dtd">

<svg xmlns="http://www.w3.org/2000/svg"
     width="4.11667in" height="4.11667in"
     viewBox="0 0 1235 1235">
  <path id="Selection"
        fill="black" stroke="black" stroke-width="1"
        d="M 785.00,102.42
           C 785.00,102.42 806.00,103.00 806.00,103.00
             822.00,103.08 846.35,107.99 862.00,112.12
             964.49,139.14 1042.83,226.80 1060.08,331.00
             1060.08,331.00 1063.09,358.00 1063.09,358.00
             1063.09,358.00 1064.00,368.00 1064.00,368.00
             1064.38,400.78 1060.63,432.72 1050.33,464.00
             1024.64,542.01 963.84,605.59 887.00,634.58
             863.11,643.59 827.50,651.96 802.00,652.00
             802.00,652.00 774.00,652.00 774.00,652.00
             774.00,652.00 765.00,651.17 765.00,651.17
             742.94,649.03 722.08,645.03 701.00,638.00
             661.40,624.80 624.83,602.23 595.00,572.99
             510.91,490.54 490.40,358.82 542.81,254.00
             576.47,186.67 637.89,135.21 710.00,113.72
             723.00,109.85 743.54,105.52 757.00,104.17
             757.00,104.17 769.00,103.04 769.00,103.04
             769.00,103.04 785.00,102.42 785.00,102.42 Z
           M 771.00,138.14
           C 749.03,141.44 733.61,142.87 712.00,150.34
             650.01,171.79 598.76,217.20 571.31,277.00
             560.01,301.60 552.74,329.06 550.04,356.00
             550.04,356.00 550.04,366.00 550.04,366.00
             550.04,366.00 549.00,379.00 549.00,379.00
             549.00,379.00 550.04,389.00 550.04,389.00
             550.04,389.00 550.04,398.00 550.04,398.00
             553.14,429.23 562.32,462.35 577.31,490.00
             594.68,522.06 618.64,549.50 648.00,571.12
             666.99,585.10 690.61,597.20 713.00,604.67
             731.53,610.84 750.54,614.73 770.00,616.09
             770.00,616.09 780.00,617.00 780.00,617.00
             818.69,617.45 857.04,611.11 892.00,593.75
             921.00,579.35 945.00,562.14 966.83,538.00
             1023.09,475.79 1043.31,386.03 1017.81,306.00
             1004.84,265.31 988.71,241.63 960.58,210.01
             957.07,206.07 955.61,205.26 952.00,201.91
             932.14,183.50 911.67,169.82 887.00,158.70
             862.45,147.62 827.00,138.04 800.00,138.14
             800.00,138.14 771.00,138.14 771.00,138.14 Z
           M 739.00,264.00
           C 741.66,263.59 746.55,262.82 748.22,260.49
             749.86,258.21 748.12,254.39 747.33,252.00
             746.20,248.58 741.23,233.56 741.46,231.02
             741.68,228.47 742.95,226.93 745.19,225.83
             745.19,225.83 762.00,220.33 762.00,220.33
             764.22,219.59 768.83,217.85 771.00,217.93
             778.47,218.21 781.47,234.04 783.28,240.00
             784.01,242.39 784.73,246.59 787.28,247.65
             788.97,248.36 799.85,245.18 803.00,244.73
             812.19,243.40 826.14,243.48 835.01,246.46
             857.33,253.96 870.84,272.96 873.12,296.00
             873.94,304.33 873.39,313.12 870.24,321.00
             865.91,331.86 858.76,337.95 850.00,345.00
             863.14,342.61 875.90,343.46 888.00,349.67
             906.88,359.35 918.71,383.29 918.99,404.00
             919.37,431.60 904.20,450.61 881.04,463.91
             874.22,467.83 866.83,471.79 859.00,473.00
             859.00,473.00 865.00,493.00 865.00,493.00
             866.10,496.29 867.91,500.53 866.88,503.98
             865.06,510.06 850.76,513.24 845.00,514.86
             842.60,515.53 839.50,516.53 837.02,516.10
             832.52,515.32 831.61,511.76 830.33,508.00
             830.33,508.00 823.00,485.00 823.00,485.00
             823.00,485.00 814.00,488.00 814.00,488.00
             814.00,488.00 820.98,509.00 820.98,509.00
             821.81,511.70 823.30,516.24 822.36,518.96
             821.35,521.90 818.71,523.23 816.00,524.29
             816.00,524.29 794.01,530.71 794.01,530.71
             792.00,530.74 790.34,530.22 788.83,528.85
             786.65,526.88 785.59,522.76 784.67,520.00
             782.55,513.67 780.01,506.56 779.00,500.00
             779.00,500.00 742.00,511.09 742.00,511.09
             737.30,512.90 731.52,515.85 727.84,511.09
             726.36,508.84 720.12,490.08 719.52,487.00
             718.95,484.08 719.07,481.64 721.31,479.43
             723.48,477.28 728.06,476.29 731.00,475.33
             740.59,472.20 752.12,468.40 751.09,455.74
             750.71,451.02 746.85,440.64 745.19,435.63
             745.19,435.63 735.19,404.63 735.19,404.63
             735.19,404.63 710.73,329.71 710.73,329.71
             709.66,327.30 708.58,325.39 706.68,323.52
             698.93,315.92 689.86,319.05 681.00,322.00
             678.17,322.94 672.90,325.07 670.05,324.48
             666.62,323.76 665.71,320.92 664.67,318.00
             664.67,318.00 658.03,296.00 658.03,296.00
             657.76,290.26 663.58,288.73 668.00,287.42
             668.00,287.42 706.00,276.00 706.00,276.00
             706.00,276.00 699.00,255.00 699.00,255.00
             697.92,251.74 696.06,247.50 697.24,244.11
             699.08,238.80 714.67,235.67 720.00,234.02
             722.84,233.12 725.86,232.04 728.53,234.02
             730.86,235.80 731.88,240.29 732.72,243.00
             734.77,249.65 737.96,257.29 739.00,264.00 Z
           M 769.00,357.00
           C 784.35,351.88 808.76,346.12 820.70,335.32
             838.38,319.33 827.48,290.40 809.09,285.95
             798.52,283.39 787.91,287.03 778.00,290.33
             778.00,290.33 751.00,299.00 751.00,299.00
             751.00,299.00 769.00,357.00 769.00,357.00 Z
           M 800.00,453.00
           C 800.00,453.00 822.00,446.02 822.00,446.02
             835.74,441.75 853.40,437.03 863.33,425.82
             878.00,409.26 867.37,379.87 846.43,374.52
             827.35,369.64 799.55,384.58 780.00,389.00
             780.00,389.00 784.66,404.00 784.66,404.00
             784.66,404.00 800.00,453.00 800.00,453.00 Z
           M 117.00,651.16
           C 117.00,651.16 164.00,651.16 164.00,651.16
             164.00,651.16 202.00,651.16 202.00,651.16
             227.25,651.00 249.11,649.57 265.56,673.00
             268.49,677.17 270.45,681.20 272.14,686.00
             274.27,692.07 274.99,698.60 275.00,705.00
             275.00,705.00 275.00,965.00 275.00,965.00
             275.00,965.00 275.00,1079.00 275.00,1079.00
             274.96,1102.81 262.84,1121.79 240.00,1129.91
             234.19,1131.98 222.31,1132.99 216.00,1133.00
             216.00,1133.00 125.00,1133.00 125.00,1133.00
             119.33,1132.93 112.72,1132.16 108.30,1128.29
             99.88,1120.93 100.60,1106.30 110.04,1100.14
             114.74,1097.07 119.63,1097.01 125.00,1097.00
             125.00,1097.00 219.00,1097.00 219.00,1097.00
             234.92,1096.97 239.98,1087.68 240.00,1073.00
             240.00,1073.00 240.00,776.00 240.00,776.00
             240.00,776.00 240.00,711.00 240.00,711.00
             239.98,695.97 235.30,687.03 219.00,687.00
             219.00,687.00 126.00,687.00 126.00,687.00
             119.28,686.99 112.54,686.59 107.48,681.52
             98.55,672.59 100.91,655.40 117.00,651.16 Z
           M 321.00,720.53
           C 321.00,720.53 345.00,720.00 345.00,720.00
             345.00,720.00 386.00,720.00 386.00,720.00
             386.00,720.00 438.00,720.00 438.00,720.00
             438.00,720.00 463.00,720.00 463.00,720.00
             477.74,720.02 493.12,725.35 506.00,732.31
             540.75,751.09 570.27,777.81 603.00,799.67
             619.04,810.38 637.04,822.97 657.00,823.00
             657.00,823.00 759.00,823.00 759.00,823.00
             777.33,823.03 804.93,830.76 817.90,844.09
             829.85,856.38 822.81,875.74 805.00,874.96
             796.45,874.59 790.67,867.99 783.00,864.26
             774.17,859.97 762.78,858.02 753.00,858.00
             753.00,858.00 684.00,858.00 684.00,858.00
             684.00,858.00 651.00,858.00 651.00,858.00
             635.49,857.98 620.46,851.97 607.00,844.69
             577.69,828.84 543.97,801.09 516.00,781.14
             501.72,770.95 477.87,755.21 460.00,755.00
             460.00,755.00 327.00,755.00 327.00,755.00
             316.10,754.86 307.05,747.59 308.20,736.00
             308.95,728.35 313.82,722.83 321.00,720.53 Z
           M 1059.00,788.42
           C 1065.08,787.70 1075.01,789.10 1081.00,790.63
             1112.77,798.76 1130.56,824.20 1132.82,856.00
             1133.05,859.28 1132.50,860.90 1132.16,864.00
             1130.38,880.65 1124.21,895.84 1111.83,907.57
             1104.06,914.94 1087.66,924.41 1078.00,930.42
             1078.00,930.42 1027.00,962.19 1027.00,962.19
             1027.00,962.19 908.00,1036.20 908.00,1036.20
             881.24,1052.44 867.09,1064.23 837.00,1075.58
             786.09,1094.78 727.90,1098.63 674.00,1098.00
             656.13,1097.79 626.67,1091.79 609.00,1087.37
             564.30,1076.20 517.87,1057.92 476.00,1038.69
             476.00,1038.69 439.00,1020.74 439.00,1020.74
             439.00,1020.74 417.00,1009.45 417.00,1009.45
             399.32,1002.29 366.10,996.23 347.00,996.00
             347.00,996.00 320.00,994.35 320.00,994.35
             317.75,993.64 315.79,992.36 314.04,990.79
             303.09,980.95 307.22,960.25 328.00,960.00
             328.00,960.00 338.00,960.00 338.00,960.00
             338.00,960.00 348.00,961.00 348.00,961.00
             348.00,961.00 357.00,961.00 357.00,961.00
             376.62,962.43 404.60,966.80 423.00,973.43
             423.00,973.43 493.00,1006.69 493.00,1006.69
             530.28,1023.81 568.51,1038.95 608.00,1050.14
             628.59,1055.98 649.63,1060.53 671.00,1062.09
             671.00,1062.09 681.00,1063.00 681.00,1063.00
             728.56,1063.55 787.89,1057.29 832.00,1038.99
             847.38,1032.61 878.35,1012.17 894.00,1002.42
             894.00,1002.42 1002.00,935.19 1002.00,935.19
             1002.00,935.19 1070.00,892.81 1070.00,892.81
             1084.80,883.75 1097.76,875.66 1096.96,856.00
             1096.25,838.38 1079.49,823.33 1062.00,824.04
             1053.33,824.39 1038.14,832.68 1030.00,836.75
             1030.00,836.75 971.00,865.74 971.00,865.74
             971.00,865.74 885.00,907.26 885.00,907.26
             867.90,915.54 843.55,928.94 826.00,934.28
             806.37,940.26 783.48,942.97 763.00,943.00
             763.00,943.00 746.00,944.00 746.00,944.00
             746.00,944.00 693.00,944.00 693.00,944.00
             693.00,944.00 676.00,943.00 676.00,943.00
             676.00,943.00 660.00,942.09 660.00,942.09
             660.00,942.09 589.00,935.15 589.00,935.15
             589.00,935.15 545.00,929.08 545.00,929.08
             540.00,928.26 529.16,927.03 525.00,925.44
             513.05,920.87 510.59,904.69 519.21,896.33
             523.89,891.79 527.96,891.94 534.00,892.00
             534.00,892.00 569.00,896.73 569.00,896.73
             569.00,896.73 626.00,903.83 626.00,903.83
             626.00,903.83 687.00,908.00 687.00,908.00
             687.00,908.00 704.00,909.00 704.00,909.00
             704.00,909.00 762.00,908.00 762.00,908.00
             762.00,908.00 774.00,907.09 774.00,907.09
             790.62,905.93 804.18,903.94 820.00,898.31
             820.00,898.31 883.00,868.25 883.00,868.25
             883.00,868.25 983.00,819.75 983.00,819.75
             983.00,819.75 1016.00,803.75 1016.00,803.75
             1024.93,799.29 1034.49,793.86 1044.00,791.04
             1050.04,789.24 1053.08,789.28 1059.00,788.42 Z
           M 160.00,994.44
           C 187.57,991.51 199.95,1026.95 178.00,1042.35
             174.79,1044.61 169.88,1046.16 166.00,1046.70
             149.02,1049.07 136.61,1035.48 137.01,1019.00
             137.35,1004.99 146.94,996.87 160.00,994.44 Z" />
</svg>
