<svg xmlns="http://www.w3.org/2000/svg"
     width="4.12222in" height="4.12222in"
     viewBox="0 0 371 371">
  <path id="Selection #2"
        fill="#375a7f" stroke="none" stroke-width="1"
        d="M 0.00,0.00
           C 0.00,0.00 371.00,0.00 371.00,0.00
             371.00,0.00 371.00,371.00 371.00,371.00
             371.00,371.00 0.00,371.00 0.00,371.00
             0.00,371.00 0.00,0.00 0.00,0.00 Z
           M 231.00,30.28
           C 231.00,30.28 213.00,33.43 213.00,33.43
             189.31,40.11 169.99,57.46 160.43,80.00
             142.12,123.14 162.00,173.50 206.00,190.80
             213.29,193.66 222.15,195.90 230.00,196.00
             230.00,196.00 242.00,196.00 242.00,196.00
             260.19,195.97 279.49,187.91 293.00,175.83
             323.25,148.78 328.83,99.57 306.25,66.00
             294.85,49.05 277.62,37.80 258.00,32.87
             248.78,30.56 240.53,29.40 231.00,30.28 Z
           M 229.00,42.21
           C 229.00,42.21 239.00,42.21 239.00,42.21
             270.57,42.05 298.24,64.76 306.25,95.00
             308.36,103.00 308.09,110.81 308.00,119.00
             307.86,131.04 302.43,145.21 295.56,155.00
             290.36,162.41 283.66,168.75 276.00,173.56
             267.91,178.64 257.45,182.44 248.00,183.87
             237.18,185.50 230.70,185.28 220.00,182.63
             208.68,179.81 197.75,174.65 189.00,166.83
             156.41,137.69 158.42,84.98 192.00,57.46
             204.02,47.61 214.15,44.86 229.00,42.21 Z
           M 236.00,74.07
           C 234.10,62.62 225.69,66.00 224.02,68.43
             223.07,69.81 222.73,75.43 222.00,78.00
             220.01,66.12 211.67,70.68 210.26,73.28
             208.88,75.82 210.30,80.35 211.00,83.00
             211.00,83.00 197.00,87.00 197.00,87.00
             197.40,89.84 197.85,94.23 200.43,95.98
             203.39,97.99 208.05,95.56 212.49,101.11
             214.76,103.94 215.67,108.53 216.72,112.00
             216.72,112.00 222.68,130.00 222.68,130.00
             223.28,132.59 224.07,135.34 222.68,137.90
             220.81,141.83 212.97,143.30 217.31,150.93
             220.60,156.57 229.46,152.99 234.00,150.93
             235.66,160.90 242.58,160.06 245.40,156.69
             247.09,154.65 246.86,151.51 247.00,149.00
             251.34,156.81 257.41,155.75 259.20,150.89
             260.51,148.17 259.66,144.72 259.20,142.00
             265.58,140.45 270.15,138.11 273.64,132.00
             276.01,127.84 276.10,124.64 275.99,120.00
             275.70,108.51 269.00,103.25 258.00,103.00
             259.74,100.68 261.21,98.80 262.15,96.00
             265.06,87.32 260.55,77.49 252.00,74.07
             246.99,72.18 241.13,73.08 236.00,74.07 Z
           M 226.00,90.00
           C 226.00,90.00 236.00,87.13 236.00,87.13
             237.63,86.76 239.31,86.35 241.00,86.56
             246.87,87.29 249.70,93.78 246.83,98.82
             245.13,101.79 241.19,103.66 238.00,104.36
             235.90,105.13 233.52,105.64 231.65,104.36
             230.19,103.04 229.32,100.67 228.70,99.00
             228.70,99.00 226.00,90.00 226.00,90.00 Z
           M 235.00,117.00
           C 239.97,115.34 247.84,112.26 253.00,113.40
             260.34,115.02 262.98,123.20 257.61,128.61
             253.98,132.27 245.06,134.29 240.00,135.00
             240.00,135.00 235.00,117.00 235.00,117.00 Z
           M 36.02,195.21
           C 30.87,197.57 28.21,202.49 34.11,205.83
             36.55,207.21 40.24,207.00 43.00,207.00
             43.00,207.00 59.00,207.00 59.00,207.00
             69.31,207.14 71.88,211.11 72.00,221.00
             72.00,221.00 72.00,289.00 72.00,289.00
             72.00,289.00 72.00,315.00 72.00,315.00
             71.95,319.01 71.70,323.47 68.58,326.43
             65.58,329.29 61.82,328.99 58.00,329.00
             58.00,329.00 43.00,329.00 43.00,329.00
             40.71,329.00 37.14,328.87 35.06,329.74
             30.62,331.59 30.14,336.64 33.31,339.26
             35.77,341.29 39.98,341.00 43.00,341.00
             54.70,341.02 76.62,344.30 81.85,331.00
             83.12,327.77 82.99,324.40 83.00,321.00
             83.00,321.00 83.00,216.00 83.00,216.00
             82.99,210.89 83.01,205.29 79.57,201.10
             73.04,193.14 58.37,195.00 49.00,195.21
             44.67,195.00 40.30,194.77 36.02,195.21 Z
           M 98.02,216.21
           C 93.95,218.12 90.00,222.35 95.23,225.69
             97.62,227.21 101.25,226.99 104.00,227.00
             116.88,227.02 134.51,225.31 146.00,230.78
             166.32,240.46 174.40,257.96 200.00,258.00
             200.00,258.00 228.00,258.52 228.00,258.52
             232.51,259.48 239.91,263.72 243.88,262.22
             249.34,260.17 247.22,254.32 243.88,251.42
             239.30,247.46 231.75,247.01 226.00,247.00
             216.61,246.99 200.25,248.26 192.00,244.91
             178.47,239.42 163.45,223.27 149.00,218.09
             140.74,215.13 131.66,216.00 123.00,216.21
             123.00,216.21 98.02,216.21 98.02,216.21 Z
           M 317.00,236.31
           C 309.02,237.82 305.99,240.28 299.00,243.53
             299.00,243.53 264.00,260.25 264.00,260.25
             251.95,266.27 241.84,271.93 228.00,272.00
             228.00,272.00 205.00,272.00 205.00,272.00
             205.00,272.00 165.00,268.01 165.00,268.01
             163.12,267.97 159.75,267.91 158.06,268.60
             153.72,270.36 153.86,274.69 157.23,277.42
             160.19,279.81 170.02,280.75 174.00,281.02
             174.00,281.02 208.00,284.00 208.00,284.00
             219.63,284.02 233.83,284.79 245.00,282.10
             253.97,279.94 264.68,274.41 273.00,270.25
             273.00,270.25 312.00,251.26 312.00,251.26
             323.85,245.78 328.72,255.35 327.22,260.00
             325.83,264.30 319.67,267.94 316.00,270.31
             316.00,270.31 287.00,288.40 287.00,288.40
             287.00,288.40 246.00,312.55 246.00,312.55
             224.67,321.23 200.67,319.78 179.00,313.57
             156.32,307.08 128.63,288.26 107.00,288.00
             102.61,287.95 95.45,287.22 93.28,292.10
             92.73,293.34 92.70,294.55 93.28,295.78
             94.53,298.41 98.38,299.30 101.00,299.70
             109.10,300.92 113.71,300.17 122.00,303.45
             122.00,303.45 142.00,312.69 142.00,312.69
             155.65,318.96 173.25,325.76 188.00,328.54
             198.26,330.48 207.65,330.02 218.00,330.00
             251.30,329.95 276.29,310.90 303.00,293.69
             303.00,293.69 333.90,273.67 333.90,273.67
             347.22,261.48 340.84,234.94 317.00,236.31 Z
           M 49.00,298.82
           C 37.01,300.58 40.73,314.36 49.00,314.56
             57.21,314.77 61.18,300.94 49.00,298.82 Z" />
</svg>
